<svg viewBox="0 0 64 64" fill="none" xmlns="http://www.w3.org/2000/svg">
  <defs>
    <linearGradient id="bg" x1="7" y1="5" x2="57" y2="60" gradientUnits="userSpaceOnUse">
      <stop stop-color="#10263D"/>
      <stop offset="1" stop-color="#07111F"/>
    </linearGradient>
    <linearGradient id="mint" x1="11" y1="13" x2="52" y2="52" gradientUnits="userSpaceOnUse">
      <stop stop-color="#79F2C0"/>
      <stop offset="1" stop-color="#20C7B5"/>
    </linearGradient>
    <linearGradient id="violet" x1="11" y1="52" x2="53" y2="13" gradientUnits="userSpaceOnUse">
      <stop stop-color="#6D7CFF"/>
      <stop offset="1" stop-color="#B794F6"/>
    </linearGradient>
  </defs>
  <rect x="2" y="2" width="60" height="60" rx="15" fill="url(#bg)"/>
  <path d="M32 7L53 19V45L32 57L11 45V19L32 7Z" stroke="#1C3C50"/>
  <path d="M13 19L24 25L32 40L40 25L51 19" stroke="url(#mint)" stroke-width="5" stroke-linecap="round" stroke-linejoin="round"/>
  <path d="M13 45L24 39L32 24L40 39L51 45" stroke="url(#violet)" stroke-width="5" stroke-linecap="round" stroke-linejoin="round"/>
  <path d="M20 23L25 26M29 30L32 24M36 32L40 39M45 42L50 45" stroke="#07111F" stroke-width="7" stroke-linecap="round"/>
  <path d="M20 23L24 25L26 29" stroke="url(#mint)" stroke-width="5" stroke-linecap="round"/>
  <path d="M29 30L32 24L34 28" stroke="url(#violet)" stroke-width="5" stroke-linecap="round"/>
  <path d="M36 32L40 39L43 40" stroke="url(#mint)" stroke-width="5" stroke-linecap="round"/>
  <path d="M45 42L51 45" stroke="url(#violet)" stroke-width="5" stroke-linecap="round"/>
</svg>
